<svg width="60" height="60" viewBox="0 0 60 60" fill="none" xmlns="http://www.w3.org/2000/svg">
<path fill-rule="evenodd" clip-rule="evenodd" d="M15.1164 40.045L5.25119 46.9527C1.94056 42.1296 0 36.2924 0 30.0003C0 13.4316 13.4316 0 30.0003 0C40.0551 0 48.9483 4.95204 54.3919 12.5447L44.5145 19.4612C41.2505 14.9746 35.9738 12.0459 30.0008 12.0459C20.0845 12.0459 12.0465 20.0845 12.0465 30.0003C12.0465 33.7218 13.1791 37.1781 15.1175 40.045H15.1164ZM57.6775 18.4114L30.4156 37.5001C30.4312 37.489 39.7303 37.4923 46.2993 37.4962C43.4574 43.6643 37.2365 47.9546 30.0003 47.9546C26.261 47.9546 22.7896 46.8092 19.9149 44.8531L9.65276 52.0387C15.0007 56.9785 22.1463 60 30.0003 60C46.569 60 60.0006 46.5684 60.0006 29.9997C60.0006 25.8912 59.1726 21.9767 57.678 18.4109L57.6775 18.4114Z" fill="white"/>
</svg>
